<mxfile host="65bd71144e">
    <diagram id="JZ8QPCv8UFf1DgH7gc67" name="Page-1">
        <mxGraphModel dx="1144" dy="689" grid="1" gridSize="10" guides="1" tooltips="1" connect="1" arrows="1" fold="1" page="1" pageScale="1" pageWidth="850" pageHeight="1100" math="0" shadow="0">
            <root>
                <mxCell id="0"/>
                <mxCell id="1" parent="0"/>
                <mxCell id="3" value="Actor" style="shape=umlActor;verticalLabelPosition=bottom;verticalAlign=top;html=1;" vertex="1" parent="1">
                    <mxGeometry x="170" y="90" width="30" height="60" as="geometry"/>
                </mxCell>
            </root>
        </mxGraphModel>
    </diagram>
    <diagram name="Page-1" id="JmB2bAJ86pfZHmgGBkBo">
        <mxGraphModel dx="1097" dy="517" grid="1" gridsize="10" guides="1" tooltips="1" connect="1" arrows="1" fold="1" page="1" pageScale="1" pageWidth="827" pageHeight="1169" math="0" shadow="0">
            <root>
                <mxCell id="0" value="" style="group" vertex="1" connectable="0"/>
                <mxCell id="1" value="" style="group" vertex="1" connectable="0" parent="0"/>
            </root>
        </mxGraphModel>
    </diagram>
</mxfile>